<?xml version="1.0" encoding="UTF-8"?>
<svg width="59px" height="67px" viewBox="0 0 59 67" version="1.1" xmlns="http://www.w3.org/2000/svg" xmlns:xlink="http://www.w3.org/1999/xlink">
    <!-- Generator: Sketch 61.2 (89653) - https://sketch.com -->
    <title>Group 12</title>
    <desc>Created with Sketch.</desc>
    <defs>
        <polygon id="path-1" points="0.854 0.346 38.694 0.346 38.694 48 0.854 48"></polygon>
        <polygon id="path-3" points="0 0.756 8.3275 0.756 8.3275 26.936 0 26.936"></polygon>
        <polygon id="path-5" points="0.0005 0.615 37.5455 0.615 37.5455 17.5725 0.0005 17.5725"></polygon>
    </defs>
    <g id="Page-1" stroke="none" stroke-width="1" fill="none" fill-rule="evenodd">
        <g id="1-Home" transform="translate(-475.000000, -1285.000000)">
            <g id="Group-12" transform="translate(475.000000, 1285.000000)">
                <g id="Group-3" transform="translate(10.000000, 19.000000)">
                    <mask id="mask-2" fill="white">
                        <use xlink:href="#path-1"></use>
                    </mask>
                    <g id="Clip-2"></g>
                    <path d="M0.879,0.346 C0.864,0.506 0.854,0.666 0.854,0.826 L0.854,27.881 C0.854,30.791 3.154,33.136 6.014,33.136 L6.219,33.136 L6.219,43.841 C6.219,46.136 8.079,48.001 10.379,48.001 C12.679,48.001 14.544,46.136 14.544,43.841 L14.544,33.136 L24.999,33.136 L24.999,43.841 C24.999,46.136 26.864,48.001 29.159,48.001 C31.464,48.001 33.324,46.136 33.324,43.841 L33.324,33.136 L33.529,33.136 C36.389,33.136 38.694,30.791 38.694,27.881 L38.694,0.826 C38.694,0.666 38.689,0.506 38.674,0.346 L0.879,0.346 Z" id="Fill-1" fill="#FFFFFF" mask="url(#mask-2)"></path>
                </g>
                <path d="M54.9975976,22 C52.7921922,22 51,23.8521772 51,26.131398 L51,43.868602 C51,46.1527884 52.7921922,48 54.9975976,48 C57.2078078,48 59,46.1527884 59,43.868602 L59,26.131398 C59,23.8521772 57.2078078,22 54.9975976,22" id="Fill-4" fill="#FFFFFF"></path>
                <g id="Group-8" transform="translate(0.000000, 21.000000)">
                    <mask id="mask-4" fill="white">
                        <use xlink:href="#path-3"></use>
                    </mask>
                    <g id="Clip-7"></g>
                    <path d="M4.1625,0.756 C1.8675,0.756 -0.0025,2.621 -0.0025,4.916 L-0.0025,22.776 C-0.0025,25.076 1.8675,26.936 4.1625,26.936 C6.4625,26.936 8.3275,25.076 8.3275,22.776 L8.3275,4.916 C8.3275,2.621 6.4625,0.756 4.1625,0.756" id="Fill-6" fill="#FFFFFF" mask="url(#mask-4)"></path>
                </g>
                <g id="Group-11" transform="translate(11.000000, 0.000000)">
                    <mask id="mask-6" fill="white">
                        <use xlink:href="#path-5"></use>
                    </mask>
                    <g id="Clip-10"></g>
                    <path d="M8.8705,10.1225099 C8.8705,8.9625 9.8305,8.0175 11.0205,8.0125 C12.2055,8.0125 13.1755,8.9475 13.1805,10.1125 L13.1805,10.1225099 C13.1805,11.2825 12.2205,12.2275 11.0305,12.2325 C9.8405,12.2375 8.8755,11.2975 8.8705,10.1325 L8.8705,10.1225099 Z M24.9505,10.1225099 C24.9455,8.9625 25.9055,8.0175 27.0955,8.0125 C28.2855,8.0125 29.2505,8.9475 29.2555,10.1125 L29.2555,10.1225099 C29.2605,11.2825 28.3005,12.2275 27.1055,12.2325 C25.9205,12.2375 24.9505,11.2975 24.9505,10.1325 L24.9505,10.1225099 Z M0.0005,17.5725 L37.5455,17.5725 C37.4855,13.4525 35.6705,9.6975 32.7255,6.8475 L36.2105,0.8125 C36.2505,0.7475 36.2255,0.6675 36.1605,0.6325 C36.1005,0.5925 36.0205,0.6175 35.9855,0.6775 L32.5255,6.6625 C29.5455,3.8725 25.4555,1.9925 20.8605,1.5475 L16.6805,1.5475 C12.0905,1.9925 7.9955,3.8725 5.0155,6.6625 L1.5605,0.6775 C1.5255,0.6175 1.4455,0.5925 1.3805,0.6325 C1.3205,0.6675 1.2955,0.7475 1.3355,0.8125 L4.8155,6.8475 C1.8705,9.6975 0.0555,13.4525 0.0005,17.5725 L0.0005,17.5725 Z" id="Fill-9" fill="#FFFFFF" mask="url(#mask-6)"></path>
                </g>
            </g>
        </g>
    </g>
</svg>