<?xml version="1.0" encoding="UTF-8"?>
<svg width="54px" height="66px" viewBox="0 0 54 66" version="1.1" xmlns="http://www.w3.org/2000/svg" xmlns:xlink="http://www.w3.org/1999/xlink">
    <!-- Generator: Sketch 61.2 (89653) - https://sketch.com -->
    <title>Shape</title>
    <desc>Created with Sketch.</desc>
    <g id="Page-1" stroke="none" stroke-width="1" fill="none" fill-rule="evenodd">
        <g id="1-Home" transform="translate(-818.000000, -1275.000000)" fill="#F9F9F9" fill-rule="nonzero">
            <path d="M847.89087,1280.65745 C852.088828,1275.02745 857.924992,1275 857.924992,1275 C857.924992,1275 858.793111,1280.29316 854.622653,1285.39215 C850.169644,1290.83675 845.108186,1289.94583 845.108186,1289.94583 C845.108186,1289.94583 844.157778,1285.66385 847.89087,1280.65745 Z M845.46328,1294.05872 C847.702258,1294.05872 851.857686,1291 857.266554,1291 C866.576986,1291 870.239699,1297.58408 870.239699,1297.58408 C870.239699,1297.58408 863.07608,1301.22407 863.07608,1310.05634 C863.07608,1320.0199 872,1323.45366 872,1323.45366 C872,1323.45366 865.761852,1340.90332 857.33587,1340.90332 C853.465863,1340.90332 850.457128,1338.31145 846.379502,1338.31145 C842.224074,1338.31145 838.10042,1341 835.414648,1341 C827.720446,1341 818,1324.44739 818,1311.14167 C818,1298.05072 826.227722,1291.18341 833.944992,1291.18341 C838.961909,1291.18341 842.855093,1294.05872 845.46328,1294.05872 Z" id="Shape"></path>
        </g>
    </g>
</svg>