<?xml version="1.0" encoding="UTF-8"?>
<svg width="17px" height="17px" viewBox="0 0 17 17" version="1.1" xmlns="http://www.w3.org/2000/svg" xmlns:xlink="http://www.w3.org/1999/xlink">
    <!-- Generator: Sketch 61.2 (89653) - https://sketch.com -->
    <title>Group 3</title>
    <desc>Created with Sketch.</desc>
    <defs>
        <polygon id="path-1" points="0 0 17 0 17 17 0 17"></polygon>
    </defs>
    <g id="Page-1" stroke="none" stroke-width="1" fill="none" fill-rule="evenodd">
        <g id="1-Home" transform="translate(-682.000000, -46.000000)">
            <g id="Group-3" transform="translate(682.000000, 46.000000)">
                <mask id="mask-2" fill="white">
                    <use xlink:href="#path-1"></use>
                </mask>
                <g id="Clip-2"></g>
                <path d="M7.50953465,4.9217908 L10.097101,7.40336898 L3.83865241,7.40336898 C3.38292117,7.40336898 3.01595722,7.76997786 3.01595722,8.22588663 L3.01595722,8.77429091 C3.01595722,9.23019967 3.38292117,9.59680856 3.83865241,9.59680856 L10.097101,9.59680856 L7.50953465,12.0783867 C7.17701241,12.3968837 7.17008856,12.9282447 7.49568695,13.2540206 L7.87277037,13.6273758 C8.19499561,13.9497786 8.71588203,13.9497786 9.03455658,13.6273758 L13.5828147,9.08284598 C13.9048624,8.76062074 13.9048624,8.23955679 13.5828147,7.92088224 L9.03455658,3.36925101 C8.71233134,3.04702577 8.19162246,3.04702577 7.87277037,3.36925101 L7.49568695,3.74278374 C7.17008856,4.07193283 7.17701241,4.60311625 7.50953465,4.9217908 M17,8.5 C17,13.1956118 13.1954342,17 8.5,17 C3.80456577,17 0,13.1956118 0,8.5 C0,3.80456577 3.80456577,0 8.5,0 C13.1954342,0 17,3.80456577 17,8.5 Z" id="Fill-1" fill="#F9F9F9" mask="url(#mask-2)"></path>
            </g>
        </g>
    </g>
</svg>