<?xml version="1.0" encoding="UTF-8"?>
<svg width="26px" height="21px" viewBox="0 0 26 21" version="1.1" xmlns="http://www.w3.org/2000/svg" xmlns:xlink="http://www.w3.org/1999/xlink">
    <!-- Generator: Sketch 61.2 (89653) - https://sketch.com -->
    <title>Group 3</title>
    <desc>Created with Sketch.</desc>
    <g id="Symbols" stroke="none" stroke-width="1" fill="none" fill-rule="evenodd">
        <g id="Footer" transform="translate(-971.000000, -33.000000)">
            <g id="Group" transform="translate(939.000000, 29.000000)">
                <g id="Group-3" transform="translate(32.000000, 0.000000)">
                    <polygon id="Clip-2" points="0 0 31 0 31 25 0 25"></polygon>
                    <path d="M25.3842492,6.57089347 C24.9763258,6.74822101 24.5568428,6.89789852 24.1280911,7.01941584 C24.6356781,6.4571304 25.0224606,5.79546809 25.2587583,5.07156768 C25.3116623,4.90934053 25.2567796,4.73160487 25.1206663,4.62559606 C24.9846572,4.51938319 24.795744,4.50662948 24.6459882,4.59345672 C23.7356849,5.12237845 22.7536281,5.50254095 21.7238742,5.72476154 C20.6865181,4.73180893 19.2775841,4.16666667 17.8211614,4.16666667 C14.746584,4.16666667 12.2454111,6.6171129 12.2454111,9.62902833 C12.2454111,9.86634931 12.26072,10.1022419 12.2910252,10.3348695 C8.47610391,10.0066401 4.92913939,8.16949411 2.49357583,5.24246735 C2.4067216,5.13809102 2.27310771,5.08187268 2.13626542,5.09268782 C1.99921485,5.10319687 1.87611928,5.17890288 1.80696915,5.29511466 C1.31292059,6.12573808 1.05183718,7.07543012 1.05183718,8.04175298 C1.05183718,9.35793554 1.53151417,10.6068806 2.37870746,11.5826922 C2.12116487,11.4952528 1.87112048,11.385979 1.63253168,11.2562993 C1.50443731,11.186307 1.34801637,11.1875313 1.22085927,11.2588501 C1.09338974,11.3303728 1.01361715,11.4619911 1.01018047,11.6056489 C1.00965976,11.6299319 1.00965976,11.6540109 1.00965976,11.6786001 C1.00965976,13.6431811 2.08898506,15.4121712 3.73900725,16.3763515 C3.5972703,16.3623734 3.45574164,16.3422736 3.31494197,16.3159499 C3.1696642,16.288606 3.02053319,16.3383965 2.92263992,16.447058 C2.82464252,16.5552095 2.79215029,16.7063154 2.83734781,16.8441575 C3.44813929,18.7124225 5.02068001,20.0866599 6.92168386,20.5054916 C5.34497748,21.4732429 3.54197102,21.9799222 1.64909023,21.9799222 C1.25418464,21.9799222 0.856883786,21.9572716 0.468122562,21.9121745 C0.275147863,21.889728 0.0904003642,22.0012464 0.024582766,22.1812267 C-0.0412348322,22.3614111 0.0285401532,22.5620014 0.192875865,22.6650513 C2.62448204,24.1927414 5.43620567,25 8.32374451,25 C14.0004082,25 17.5515384,22.3775318 19.530961,20.1772622 C21.9992251,17.4340929 23.4148242,13.8028575 23.4148242,10.2150867 C23.4148242,10.0652051 23.4124289,9.9137931 23.4077425,9.76289124 C24.3815722,9.04409232 25.2200176,8.17428951 25.9022503,7.17429685 C26.0059755,7.02247672 25.9946241,6.82178439 25.8746527,6.68210579 C25.7547856,6.54222314 25.5549375,6.49692197 25.3842492,6.57089347" id="Fill-1" fill="#F9F9F9"></path>
                </g>
            </g>
        </g>
    </g>
</svg>